HIERARCHY
ROOT hip
{
	OFFSET 0.000000 0.000000 0.000000 
	CHANNELS 6 Xposition Yposition Zposition Xrotation Zrotation Yrotation
	JOINT abdomen
	{
		OFFSET 0.000000 3.402643 0.000000 
		CHANNELS 3 Xrotation Zrotation Yrotation
		JOINT chest
		{
			OFFSET 0.000000 8.438565 -0.680529 
			CHANNELS 3 Xrotation Zrotation Yrotation
			JOINT neck
			{
				OFFSET 0.000000 10.207942 -0.272212 
				CHANNELS 3 Xrotation Zrotation Yrotation
				JOINT head
				{
					OFFSET 0.000000 3.130431 0.000000 
					CHANNELS 3 Xrotation Zrotation Yrotation
					End Site
					{
						OFFSET 0.000000 3.130435 0.000000 
					}
				}
			}
			JOINT lCollar
			{
				OFFSET 3.470700 6.669187 -0.816635 
				CHANNELS 3 Yrotation Zrotation Xrotation
				JOINT lShldr
				{
					OFFSET 3.198488 0.000000 0.000000 
					CHANNELS 3 Zrotation Yrotation Xrotation
					JOINT lForeArm
					{
						OFFSET 10.139888 0.000000 0.000000 
						CHANNELS 3 Yrotation Zrotation Xrotation
						JOINT lHand
						{
							OFFSET 8.370511 0.000000 0.000000 
							CHANNELS 3 Zrotation Yrotation Xrotation
							End Site
							{
								OFFSET 4.083176 0.000000 0.000000 
							}
						}
					}
				}
			}
			JOINT rCollar
			{
				OFFSET -3.470700 6.669187 -0.816635 
				CHANNELS 3 Yrotation Zrotation Xrotation
				JOINT rShldr
				{
					OFFSET -3.198488 0.000000 0.000000 
					CHANNELS 3 Zrotation Yrotation Xrotation
					JOINT rForeArm
					{
						OFFSET -10.139888 0.000000 0.000000 
						CHANNELS 3 Yrotation Zrotation Xrotation
						JOINT rHand
						{
							OFFSET -8.370511 0.000000 0.000000 
							CHANNELS 3 Zrotation Yrotation Xrotation
							End Site
							{
								OFFSET -4.083176 0.000000 0.000000 
							}
						}
					}
				}
			}
		}
	}
	JOINT lThigh
	{
		OFFSET 5.308129 -1.633274 1.361059 
		CHANNELS 3 Xrotation Zrotation Yrotation
		JOINT lShin
		{
			OFFSET -2.041588 -20.007561 0.000000 
			CHANNELS 3 Xrotation Zrotation Yrotation
			JOINT lFoot
			{
				OFFSET 0.000000 -19.190928 -1.224953 
				CHANNELS 3 Xrotation Yrotation Zrotation
				End Site
				{
					OFFSET 0.000000 -2.449906 4.627600 
				}
			}
		}
	}
	JOINT rThigh
	{
		OFFSET -5.308129 -1.633274 1.361059 
		CHANNELS 3 Xrotation Zrotation Yrotation
		JOINT rShin
		{
			OFFSET 2.041588 -20.007561 0.000000 
			CHANNELS 3 Xrotation Zrotation Yrotation
			JOINT rFoot
			{
				OFFSET 0.000000 -19.190928 -1.224953 
				CHANNELS 3 Xrotation Yrotation Zrotation
				End Site
				{
					OFFSET 0.000000 -2.449906 4.627600 
				}
			}
		}
	}
}
MOTION
Frames: 6
Frame Time: 0.033333
0.334508 49.638664 0.334508 0.000000 0.000000 0.000000 24.072264 -0.008969 -0.004015 -9.222958 1.780943 -8.822020 23.137114 2.262003 -7.907512 10.524219 0.508720 -0.030344 -30.271074 -11.715708 -3.336942 -76.914398 -40.909485 33.209137 -26.417013 -2.165618 2.311615 -9.037178 1.065312 83.511246 -5.180131 11.003500 -3.150267 63.846401 -20.629780 9.847705 91.055901 3.194471 0.944399 38.805038 50.520535 65.806732 2.376307 2.553305 0.602678 2.310530 -1.853541 -1.517510 -4.662024 0.846682 -0.614829 2.206921 -3.085746 -0.644749 2.650610 1.831281 1.545582 -4.841407 -0.873909 1.111763 
0.334508 49.638664 0.334508 0.000000 0.000000 0.000000 24.072264 -0.008969 -0.004015 -9.222958 1.780943 -8.822020 23.419186 2.295540 -7.891534 10.524219 0.508720 -0.030344 -30.215958 -12.059241 -3.077606 -76.576294 -41.166023 33.209404 -26.417013 -2.165618 2.311615 -9.037178 1.065312 83.511246 -5.230178 11.321244 -2.881610 63.537098 -20.367027 9.789925 91.055901 3.194471 0.944399 38.805038 50.520535 65.806732 2.376307 2.553305 0.602678 2.310530 -1.853541 -1.517510 -4.662024 0.846682 -0.614829 2.206921 -3.085746 -0.644749 2.650610 1.831281 1.545582 -4.841407 -0.873909 1.111763 
0.334508 49.638664 0.334508 0.000000 0.000000 0.000000 24.072264 -0.008969 -0.004015 -9.222958 1.780943 -8.822020 23.769024 2.343135 -7.879951 10.524219 0.508720 -0.030344 -30.163822 -12.469740 -2.769803 -76.186317 -41.471138 33.214527 -26.417013 -2.165618 2.311615 -9.037178 1.065312 83.511246 -5.298757 11.718349 -2.541152 63.169823 -20.051016 9.716680 91.055901 3.194471 0.944399 38.805038 50.520535 65.806732 2.376307 2.553305 0.602678 2.310530 -1.853541 -1.517510 -4.662024 0.846682 -0.614829 2.206921 -3.085746 -0.644749 2.650610 1.831281 1.545582 -4.841407 -0.873909 1.111763 
0.334508 49.638664 0.334508 0.000000 0.000000 0.000000 24.072264 -0.008969 -0.004015 -9.222958 1.780943 -8.822020 24.157475 2.401868 -7.863101 10.524219 0.508720 -0.030344 -30.101542 -12.930383 -2.399357 -75.721291 -41.831478 33.206882 -26.417013 -2.165618 2.311615 -9.037178 1.065312 83.511246 -5.377084 12.178924 -2.166420 62.744133 -19.679913 9.634174 91.055901 3.194471 0.944399 38.805038 50.520535 65.806732 2.376307 2.553305 0.602678 2.310530 -1.853541 -1.517510 -4.662024 0.846682 -0.614829 2.206921 -3.085746 -0.644749 2.650610 1.831281 1.545582 -4.841407 -0.873909 1.111763 
0.334508 49.638664 0.334508 0.000000 0.000000 0.000000 24.072264 -0.008969 -0.004015 -9.222958 1.780943 -8.822020 24.585110 2.461044 -7.834361 10.524219 0.508720 -0.030344 -30.010256 -13.427711 -2.010668 -75.231110 -42.213066 33.215076 -26.417013 -2.165618 2.311615 -9.037178 1.065312 83.511246 -5.470944 12.677860 -1.752822 62.279358 -19.283419 9.534550 91.055901 3.194471 0.944399 38.805038 50.520535 65.806732 2.376307 2.553305 0.602678 2.310530 -1.853541 -1.517510 -4.662024 0.846682 -0.614829 2.206921 -3.085746 -0.644749 2.650610 1.831281 1.545582 -4.841407 -0.873909 1.111763 
0.334508 49.638664 0.334508 0.000000 0.000000 0.000000 24.072264 -0.008969 -0.004015 -9.222958 1.780943 -8.822020 25.032236 2.522182 -7.813774 10.524219 0.508720 -0.030344 -29.912889 -13.961123 -1.592190 -74.711983 -42.623501 33.221321 -26.417013 -2.165618 2.311615 -9.037178 1.065312 83.511246 -5.571636 13.191706 -1.314477 61.794510 -18.857080 9.443078 91.055901 3.194471 0.944399 38.805038 50.520535 65.806732 2.376307 2.553305 0.602678 2.310530 -1.853541 -1.517510 -4.662024 0.846682 -0.614829 2.206921 -3.085746 -0.644749 2.650610 1.831281 1.545582 -4.841407 -0.873909 1.111763 
